<?xml version="1.0" encoding="UTF-8"?>
<svg fill="none" viewBox="0 0 84 55" xmlns="http://www.w3.org/2000/svg">
<path d="m82.255 10.357c0.312-1.9025 0.539-3.3583 0.6808-4.3675 0.2405-1.7112-0.0733-3.0529-0.9413-4.025-0.8681-0.97214-2.1998-1.5844-3.9951-1.8367-1.0947-0.15385-2.2203-0.16663-3.377-0.038358-1.1567 0.12828-2.2068 0.3722-3.1504 0.73177-0.2343 1.6673-0.4851 3.6903-0.7524 6.0689s-0.5049 4.7837-0.7127 7.2154-0.38 4.6895-0.5165 6.7732c-0.1366 2.0838-0.1663 3.6457-0.0892 4.6856 0.0586 1.1716 0.4871 2.0148 1.2854 2.5297 0.7984 0.5149 1.8325 0.8616 3.1023 1.0401 0.3065 0.043 0.6599 0.0703 1.0602 0.0818 0.4002 0.0115 0.8036 0.0011 1.21-0.0313 0.4064-0.0323 0.794-0.0897 1.1628-0.1721s0.65-0.1771 0.8437-0.2841c0.5347-1.5804 1.0672-3.4631 1.5975-5.6481 0.5304-2.1851 1.0169-4.3762 1.4597-6.5736 0.4428-2.1973 0.8202-4.2472 1.1322-6.1498zm-13.171 22.853c-1.2796 0.9734-2.0424 2.335-2.2883 4.0847s0.112 3.2688 1.0738 4.5572 2.4315 2.0716 4.4092 2.3495c1.9776 0.278 3.6063-0.0697 4.8859-1.0432 1.2797-0.9734 2.0424-2.3349 2.2883-4.0847 0.2459-1.7497-0.112-3.2687-1.0737-4.5572-0.9618-1.2884-2.4315-2.0716-4.4092-2.3495-1.9777-0.278-3.6063 0.0698-4.886 1.0432zm-38.028-23.716c-1.585 1.7406-2.8373 3.7997-3.757 6.1772-1.0371 2.6812-1.5557 5.6695-1.5557 8.9651 0 3.3514 0.5186 6.3677 1.5557 9.0489 1.0372 2.6811 2.4973 4.9573 4.3806 6.8285 0.7707 0.7659 1.6032 1.4592 2.4974 2.08-0.2065 1.572-0.6302 2.9841-1.2711 4.2364-0.9455 1.8476-2.2338 3.3833-3.8649 4.607s-3.5459 2.1235-5.7443 2.6994-4.5505 0.8638-7.0562 0.8638c-4.3023 0-7.6826-0.5879-10.141-1.7636-2.4584-1.1757-3.6877-3.0833-3.6877-5.7227 0-1.1038 0.22456-2.0755 0.6737-2.9154 0.44915-0.8398 0.95738-1.4756 1.5247-1.9075 1.3711 0.7678 2.9194 1.4156 4.645 1.9435 1.7257 0.5279 3.5104 0.7919 5.3542 0.7919 2.553 0 4.586-0.4319 6.0989-1.2958 1.5129-0.8638 2.2693-2.2554 2.2693-4.175v-1.1518c-1.9384 0.8639-4.3023 1.2957-7.0917 1.2957-2.1275 0-4.1486-0.3239-6.0633-0.9717-1.9148-0.6479-3.5931-1.6557-5.0351-3.0234-1.442-1.3677-2.6003-3.1312-3.4749-5.2908-0.87464-2.1595-1.312-4.7269-1.312-7.7022 0-2.9274 0.46095-5.4708 1.3829-7.6303 0.92193-2.1595 2.1984-3.9471 3.8295-5.3628 1.6311-1.4157 3.5695-2.4714 5.8151-3.1673 2.2457-0.69585 4.6923-1.0438 7.3399-1.0438 2.6949 0 5.1415 0.34792 7.3399 1.0438 2.0936 0.66266 3.8763 1.5103 5.3481 2.5428zm-8.2912 6.851c-0.3309-0.192-0.8155-0.3839-1.4537-0.5759-0.6383-0.1919-1.4302-0.2879-2.3758-0.2879-2.3166 0-4.054 0.6598-5.2123 1.9795-1.1583 1.3198-1.7375 3.2033-1.7375 5.6508 0 2.7834 0.5792 4.7869 1.7375 6.0106 1.1583 1.2238 2.6357 1.8356 4.4323 1.8356 1.9384 0 3.4749-0.4559 4.6095-1.3677v-13.245zm42.153 4.7405c0.6179 2.907 0.732 5.5903 0.3423 8.05-0.3897 2.4596-1.2128 4.6315-2.4692 6.5158s-2.9027 3.4593-4.939 4.7253c-2.0362 1.2659-4.4099 2.187-7.121 2.7632-2.7112 0.5763-5.2592 0.6769-7.6443 0.3017-2.385-0.3751-4.5371-1.1796-6.4563-2.4134-1.9192-1.2337-3.5545-2.8831-4.906-4.9481-1.3515-2.0651-2.3262-4.5042-2.9241-7.3175-0.5881-2.7664-0.6847-5.3676-0.29-7.8038s1.2177-4.6081 2.4692-6.5158c1.2514-1.9077 2.8903-3.518 4.9166-4.8308 2.0262-1.3128 4.3949-2.2573 7.106-2.8336 2.7112-0.57627 5.2617-0.66511 7.6518-0.26651 2.39 0.3986 4.5446 1.2148 6.4638 2.4485s3.5545 2.8832 4.906 4.9482c1.3514 2.0651 2.3162 4.4573 2.8942 7.1768zm-24.124 5.1278c0.608 2.8601 1.6138 4.9374 3.0176 6.2317 1.4037 1.2943 3.0706 1.7363 5.0005 1.3261 1.93-0.4102 3.2475-1.4988 3.9525-3.2659s0.7585-4.0572 0.1605-6.8705c-0.5979-2.8132-1.5873-4.8694-2.9681-6.1687-1.3808-1.2992-3.0361-1.7436-4.9661-1.3334-1.9299 0.4102-3.2614 1.4896-3.9944 3.2381s-0.8005 4.0293-0.2025 6.8426z" clip-rule="evenodd" fill="#232E3B" fill-rule="evenodd"/>
</svg>
