<svg width="84" height="55" viewBox="0 0 84 55" fill="none" xmlns="http://www.w3.org/2000/svg">
<path fill-rule="evenodd" clip-rule="evenodd" d="M82.2549 10.3566C82.5669 8.45413 82.7939 6.9983 82.9357 5.98912C83.1762 4.2779 82.8624 2.93624 81.9944 1.96411C81.1263 0.991973 79.7946 0.379758 77.9993 0.127445C76.9046 -0.0264039 75.779 -0.0391898 74.6223 0.0890872C73.4656 0.217364 72.4155 0.461285 71.4719 0.820857C71.2376 2.4882 70.9868 4.51115 70.7195 6.88976C70.4522 9.26837 70.2146 11.6735 70.0068 14.1052C69.799 16.5369 69.6268 18.7947 69.4903 20.8784C69.3537 22.9622 69.324 24.5241 69.4011 25.564C69.4597 26.7356 69.8882 27.5788 70.6865 28.0937C71.4849 28.6086 72.519 28.9553 73.7888 29.1338C74.0953 29.1768 74.4487 29.2041 74.849 29.2156C75.2492 29.2271 75.6526 29.2167 76.059 29.1843C76.4654 29.152 76.853 29.0946 77.2218 29.0122C77.5906 28.9298 77.8718 28.8351 78.0655 28.7281C78.6002 27.1477 79.1327 25.265 79.663 23.08C80.1934 20.8949 80.6799 18.7038 81.1227 16.5064C81.5655 14.3091 81.9429 12.2592 82.2549 10.3566ZM69.0836 33.2098C67.804 34.1832 67.0412 35.5448 66.7953 37.2945C66.5494 39.0442 66.9073 40.5633 67.8691 41.8517C68.8309 43.1401 70.3006 43.9233 72.2783 44.2012C74.2559 44.4792 75.8846 44.1315 77.1642 43.158C78.4439 42.1846 79.2066 40.8231 79.4525 39.0733C79.6984 37.3236 79.3405 35.8046 78.3788 34.5161C77.417 33.2277 75.9473 32.4445 73.9696 32.1666C71.9919 31.8886 70.3633 32.2364 69.0836 33.2098ZM31.0554 9.49366C29.4704 11.2343 28.2181 13.2934 27.2984 15.6709C26.2613 18.3521 25.7427 21.3404 25.7427 24.636C25.7427 27.9874 26.2613 31.0037 27.2984 33.6849C28.3356 36.366 29.7957 38.6422 31.679 40.5134C32.4497 41.2793 33.2822 41.9726 34.1764 42.5934C33.9699 44.1654 33.5462 45.5775 32.9053 46.8298C31.9598 48.6774 30.6715 50.2131 29.0404 51.4368C27.4093 52.6605 25.4945 53.5603 23.2961 54.1362C21.0977 54.7121 18.7456 55 16.2399 55C11.9376 55 8.55729 54.4121 6.09883 53.2364C3.64038 52.0607 2.41117 50.1531 2.41117 47.5137C2.41117 46.4099 2.63573 45.4382 3.08487 44.5983C3.53402 43.7585 4.04225 43.1227 4.60958 42.6908C5.98064 43.4586 7.52898 44.1064 9.25462 44.6343C10.9803 45.1622 12.765 45.4262 14.6088 45.4262C17.1618 45.4262 19.1948 44.9943 20.7077 44.1304C22.2206 43.2666 22.977 41.875 22.977 39.9554V38.8036C21.0386 39.6675 18.6747 40.0993 15.8853 40.0993C13.7578 40.0993 11.7367 39.7754 9.82196 39.1276C7.9072 38.4797 6.22885 37.4719 4.78687 36.1042C3.3449 34.7365 2.1866 32.973 1.31196 30.8134C0.437315 28.6539 0 26.0865 0 23.1112C0 20.1838 0.460954 17.6404 1.38287 15.4809C2.3048 13.3214 3.58128 11.5338 5.21237 10.1181C6.84347 8.70241 8.78183 7.64666 11.0275 6.95081C13.2732 6.25496 15.7198 5.90704 18.3674 5.90704C21.0623 5.90704 23.5089 6.25496 25.7073 6.95081C27.8009 7.61347 29.5836 8.46108 31.0554 9.49366ZM22.7642 16.3447C22.4333 16.1527 21.9487 15.9608 21.3105 15.7688C20.6722 15.5769 19.8803 15.4809 18.9347 15.4809C16.6181 15.4809 14.8807 16.1407 13.7224 17.4604C12.5641 18.7802 11.9849 20.6637 11.9849 23.1112C11.9849 25.8946 12.5641 27.8981 13.7224 29.1218C14.8807 30.3456 16.3581 30.9574 18.1547 30.9574C20.0931 30.9574 21.6296 30.5015 22.7642 29.5897V16.3447ZM64.9171 21.0852C65.535 23.9922 65.6491 26.6755 65.2594 29.1352C64.8697 31.5948 64.0466 33.7667 62.7902 35.651C61.5338 37.5353 59.8875 39.1103 57.8512 40.3763C55.815 41.6422 53.4413 42.5633 50.7302 43.1395C48.019 43.7158 45.471 43.8164 43.0859 43.4412C40.7009 43.0661 38.5488 42.2616 36.6296 41.0278C34.7104 39.7941 33.0751 38.1447 31.7236 36.0797C30.3721 34.0146 29.3974 31.5755 28.7995 28.7622C28.2114 25.9958 28.1148 23.3946 28.5095 20.9584C28.9042 18.5222 29.7272 16.3503 30.9787 14.4426C32.2301 12.5349 33.869 10.9246 35.8953 9.61181C37.9215 8.299 40.2902 7.35447 43.0013 6.7782C45.7125 6.20193 48.263 6.11309 50.6531 6.51169C53.0431 6.91029 55.1977 7.72646 57.1169 8.96023C59.0361 10.194 60.6714 11.8434 62.0229 13.9084C63.3743 15.9735 64.3391 18.3657 64.9171 21.0852ZM40.7927 26.213C41.4007 29.0731 42.4065 31.1504 43.8103 32.4447C45.214 33.739 46.8809 34.181 48.8108 33.7708C50.7408 33.3606 52.0583 32.272 52.7633 30.5049C53.4683 28.7378 53.5218 26.4477 52.9238 23.6344C52.3259 20.8212 51.3365 18.765 49.9557 17.4657C48.5749 16.1665 46.9196 15.7221 44.9896 16.1323C43.0597 16.5425 41.7282 17.6219 40.9952 19.3704C40.2622 21.1189 40.1947 23.3997 40.7927 26.213Z" fill="#232E3B"/>
</svg>
